<?xml version="1.0" encoding="UTF-8" standalone="no"?>
<!-- Created with Inkscape (http://www.inkscape.org/) -->

<svg
   xmlns:dc="http://purl.org/dc/elements/1.1/"
   xmlns:cc="http://creativecommons.org/ns#"
   xmlns:rdf="http://www.w3.org/1999/02/22-rdf-syntax-ns#"
   xmlns:svg="http://www.w3.org/2000/svg"
   xmlns="http://www.w3.org/2000/svg"
   xmlns:sodipodi="http://sodipodi.sourceforge.net/DTD/sodipodi-0.dtd"
   xmlns:inkscape="http://www.inkscape.org/namespaces/inkscape"
   width="210mm"
   height="297mm"
   viewBox="0 0 210 297"
   version="1.1"
   id="svg8"
   inkscape:version="0.92.4 (f8dce91, 2019-08-02)"
   sodipodi:docname="mprOLSR.svg"
   inkscape:export-filename="/home/arnaud/Dropbox/Cours2019-2020/projet/projet_ma1/rapport/images/olsr.png"
   inkscape:export-xdpi="481"
   inkscape:export-ydpi="481">
  <defs
     id="defs2">
    <marker
       inkscape:stockid="Arrow2Mend"
       orient="auto"
       refY="0.0"
       refX="0.0"
       id="Arrow2Mend"
       style="overflow:visible;"
       inkscape:isstock="true">
      <path
         id="path902"
         style="fill-rule:evenodd;stroke-width:0.625;stroke-linejoin:round;stroke:#000000;stroke-opacity:1;fill:#000000;fill-opacity:1"
         d="M 8.7185878,4.0337352 L -2.2072895,0.016013256 L 8.7185884,-4.0017078 C 6.9730900,-1.6296469 6.9831476,1.6157441 8.7185878,4.0337352 z "
         transform="scale(0.6) rotate(180) translate(0,0)" />
    </marker>
    <marker
       inkscape:stockid="Arrow2Lend"
       orient="auto"
       refY="0.0"
       refX="0.0"
       id="Arrow2Lend"
       style="overflow:visible;"
       inkscape:isstock="true">
      <path
         id="path896"
         style="fill-rule:evenodd;stroke-width:0.625;stroke-linejoin:round;stroke:#000000;stroke-opacity:1;fill:#000000;fill-opacity:1"
         d="M 8.7185878,4.0337352 L -2.2072895,0.016013256 L 8.7185884,-4.0017078 C 6.9730900,-1.6296469 6.9831476,1.6157441 8.7185878,4.0337352 z "
         transform="scale(1.1) rotate(180) translate(1,0)" />
    </marker>
    <marker
       inkscape:stockid="Arrow1Lstart"
       orient="auto"
       refY="0.0"
       refX="0.0"
       id="marker1199"
       style="overflow:visible"
       inkscape:isstock="true">
      <path
         id="path1197"
         d="M 0.0,0.0 L 5.0,-5.0 L -12.5,0.0 L 5.0,5.0 L 0.0,0.0 z "
         style="fill-rule:evenodd;stroke:#000000;stroke-width:1pt;stroke-opacity:1;fill:#000000;fill-opacity:1"
         transform="scale(0.8) translate(12.5,0)" />
    </marker>
    <marker
       inkscape:stockid="Arrow1Lstart"
       orient="auto"
       refY="0.0"
       refX="0.0"
       id="marker1159"
       style="overflow:visible"
       inkscape:isstock="true">
      <path
         id="path1157"
         d="M 0.0,0.0 L 5.0,-5.0 L -12.5,0.0 L 5.0,5.0 L 0.0,0.0 z "
         style="fill-rule:evenodd;stroke:#000000;stroke-width:1pt;stroke-opacity:1;fill:#000000;fill-opacity:1"
         transform="scale(0.8) translate(12.5,0)" />
    </marker>
    <marker
       inkscape:stockid="Arrow1Lstart"
       orient="auto"
       refY="0.0"
       refX="0.0"
       id="Arrow1Lstart"
       style="overflow:visible"
       inkscape:isstock="true">
      <path
         id="path875"
         d="M 0.0,0.0 L 5.0,-5.0 L -12.5,0.0 L 5.0,5.0 L 0.0,0.0 z "
         style="fill-rule:evenodd;stroke:#000000;stroke-width:1pt;stroke-opacity:1;fill:#000000;fill-opacity:1"
         transform="scale(0.8) translate(12.5,0)" />
    </marker>
    <marker
       inkscape:stockid="Arrow2Mend"
       orient="auto"
       refY="0"
       refX="0"
       id="Arrow2Mend-6"
       style="overflow:visible"
       inkscape:isstock="true">
      <path
         inkscape:connector-curvature="0"
         id="path902-2"
         style="fill:#000000;fill-opacity:1;fill-rule:evenodd;stroke:#000000;stroke-width:0.625;stroke-linejoin:round;stroke-opacity:1"
         d="M 8.7185878,4.0337352 -2.2072895,0.01601326 8.7185884,-4.0017078 c -1.7454984,2.3720609 -1.7354408,5.6174519 -6e-7,8.035443 z"
         transform="scale(-0.6)" />
    </marker>
    <marker
       inkscape:stockid="Arrow2Mend"
       orient="auto"
       refY="0"
       refX="0"
       id="Arrow2Mend-1"
       style="overflow:visible"
       inkscape:isstock="true">
      <path
         inkscape:connector-curvature="0"
         id="path902-27"
         style="fill:#000000;fill-opacity:1;fill-rule:evenodd;stroke:#000000;stroke-width:0.625;stroke-linejoin:round;stroke-opacity:1"
         d="M 8.7185878,4.0337352 -2.2072895,0.01601326 8.7185884,-4.0017078 c -1.7454984,2.3720609 -1.7354408,5.6174519 -6e-7,8.035443 z"
         transform="scale(-0.6)" />
    </marker>
    <marker
       inkscape:stockid="Arrow2Mend"
       orient="auto"
       refY="0"
       refX="0"
       id="Arrow2Mend-9"
       style="overflow:visible"
       inkscape:isstock="true">
      <path
         inkscape:connector-curvature="0"
         id="path902-3"
         style="fill:#000000;fill-opacity:1;fill-rule:evenodd;stroke:#000000;stroke-width:0.625;stroke-linejoin:round;stroke-opacity:1"
         d="M 8.7185878,4.0337352 -2.2072895,0.01601326 8.7185884,-4.0017078 c -1.7454984,2.3720609 -1.7354408,5.6174519 -6e-7,8.035443 z"
         transform="scale(-0.6)" />
    </marker>
    <marker
       inkscape:stockid="Arrow2Mend"
       orient="auto"
       refY="0"
       refX="0"
       id="Arrow2Mend-6-2"
       style="overflow:visible"
       inkscape:isstock="true">
      <path
         inkscape:connector-curvature="0"
         id="path902-2-6"
         style="fill:#000000;fill-opacity:1;fill-rule:evenodd;stroke:#000000;stroke-width:0.625;stroke-linejoin:round;stroke-opacity:1"
         d="M 8.7185878,4.0337352 -2.2072895,0.01601326 8.7185884,-4.0017078 c -1.7454984,2.3720609 -1.7354408,5.6174519 -6e-7,8.035443 z"
         transform="scale(-0.6)" />
    </marker>
    <marker
       inkscape:stockid="Arrow2Mend"
       orient="auto"
       refY="0"
       refX="0"
       id="Arrow2Mend-6-8"
       style="overflow:visible"
       inkscape:isstock="true">
      <path
         inkscape:connector-curvature="0"
         id="path902-2-7"
         style="fill:#000000;fill-opacity:1;fill-rule:evenodd;stroke:#000000;stroke-width:0.625;stroke-linejoin:round;stroke-opacity:1"
         d="M 8.7185878,4.0337352 -2.2072895,0.01601326 8.7185884,-4.0017078 c -1.7454984,2.3720609 -1.7354408,5.6174519 -6e-7,8.035443 z"
         transform="scale(-0.6)" />
    </marker>
    <marker
       inkscape:stockid="Arrow2Mend"
       orient="auto"
       refY="0"
       refX="0"
       id="Arrow2Mend-6-20"
       style="overflow:visible"
       inkscape:isstock="true">
      <path
         inkscape:connector-curvature="0"
         id="path902-2-2"
         style="fill:#000000;fill-opacity:1;fill-rule:evenodd;stroke:#000000;stroke-width:0.625;stroke-linejoin:round;stroke-opacity:1"
         d="M 8.7185878,4.0337352 -2.2072895,0.01601326 8.7185884,-4.0017078 c -1.7454984,2.3720609 -1.7354408,5.6174519 -6e-7,8.035443 z"
         transform="scale(-0.6)" />
    </marker>
    <marker
       inkscape:stockid="Arrow2Mend"
       orient="auto"
       refY="0"
       refX="0"
       id="Arrow2Mend-6-20-5"
       style="overflow:visible"
       inkscape:isstock="true">
      <path
         inkscape:connector-curvature="0"
         id="path902-2-2-9"
         style="fill:#000000;fill-opacity:1;fill-rule:evenodd;stroke:#000000;stroke-width:0.625;stroke-linejoin:round;stroke-opacity:1"
         d="M 8.7185878,4.0337352 -2.2072895,0.01601326 8.7185884,-4.0017078 c -1.7454984,2.3720609 -1.7354408,5.6174519 -6e-7,8.035443 z"
         transform="scale(-0.6)" />
    </marker>
  </defs>
  <sodipodi:namedview
     id="base"
     pagecolor="#ffffff"
     bordercolor="#666666"
     borderopacity="1.0"
     inkscape:pageopacity="0.0"
     inkscape:pageshadow="2"
     inkscape:zoom="1.979899"
     inkscape:cx="334.24242"
     inkscape:cy="543.26324"
     inkscape:document-units="mm"
     inkscape:current-layer="layer1"
     showgrid="false"
     inkscape:window-width="3200"
     inkscape:window-height="1693"
     inkscape:window-x="0"
     inkscape:window-y="55"
     inkscape:window-maximized="1" />
  <metadata
     id="metadata5">
    <rdf:RDF>
      <cc:Work
         rdf:about="">
        <dc:format>image/svg+xml</dc:format>
        <dc:type
           rdf:resource="http://purl.org/dc/dcmitype/StillImage" />
        <dc:title></dc:title>
      </cc:Work>
    </rdf:RDF>
  </metadata>
  <g
     inkscape:label="Calque 1"
     inkscape:groupmode="layer"
     id="layer1">
    <circle
       style="fill:#00ff00;fill-opacity:1;stroke:none;stroke-width:2.46499991;stroke-linecap:round;stroke-linejoin:bevel;stroke-miterlimit:4;stroke-dasharray:none;stroke-opacity:1"
       id="path817"
       cx="98.368301"
       cy="149.87276"
       r="8.7879467" />
    <circle
       style="fill:#999999;fill-opacity:1;stroke:none;stroke-width:2.46499991;stroke-linecap:round;stroke-linejoin:bevel;stroke-miterlimit:4;stroke-dasharray:none;stroke-opacity:1"
       id="path817-3"
       cx="64.672592"
       cy="122.19388"
       r="8.7879467" />
    <circle
       style="fill:#ff0000;fill-opacity:1;stroke:none;stroke-width:2.46499991;stroke-linecap:round;stroke-linejoin:bevel;stroke-miterlimit:4;stroke-dasharray:none;stroke-opacity:1"
       id="path817-6"
       cx="58.964287"
       cy="182.37871"
       r="8.7879467" />
    <circle
       style="fill:#ff0000;fill-opacity:1;stroke:none;stroke-width:2.46499991;stroke-linecap:round;stroke-linejoin:bevel;stroke-miterlimit:4;stroke-dasharray:none;stroke-opacity:1"
       id="path817-7"
       cx="138.20335"
       cy="123.2076"
       r="8.7879467" />
    <circle
       style="fill:#999999;fill-opacity:1;stroke:none;stroke-width:2.46499991;stroke-linecap:round;stroke-linejoin:bevel;stroke-miterlimit:4;stroke-dasharray:none;stroke-opacity:1"
       id="path817-5"
       cx="167.6855"
       cy="159.39882"
       r="8.7879467" />
    <circle
       style="fill:#999999;fill-opacity:1;stroke:none;stroke-width:2.46499991;stroke-linecap:round;stroke-linejoin:bevel;stroke-miterlimit:4;stroke-dasharray:none;stroke-opacity:1"
       id="path817-3-3"
       cx="15.213542"
       cy="176.99255"
       r="8.7879467" />
    <circle
       style="fill:#999999;fill-opacity:1;stroke:none;stroke-width:2.46499991;stroke-linecap:round;stroke-linejoin:bevel;stroke-miterlimit:4;stroke-dasharray:none;stroke-opacity:1"
       id="path817-3-5"
       cx="150.14876"
       cy="85.621902"
       r="8.7879467" />
    <path
       style="fill:none;stroke:#000000;stroke-width:0.55309021;stroke-linecap:butt;stroke-linejoin:miter;stroke-miterlimit:4;stroke-dasharray:none;stroke-opacity:1;marker-end:url(#Arrow2Mend)"
       d="M 91.521427,144.76999 71.194566,128.50746"
       id="path873"
       inkscape:connector-curvature="0" />
    <path
       style="fill:none;stroke:#000000;stroke-width:0.76499999;stroke-linecap:butt;stroke-linejoin:miter;stroke-miterlimit:4;stroke-dasharray:none;stroke-opacity:1;marker-end:url(#Arrow2Mend-6)"
       d="m 104.8592,144.44875 24.73711,-16.63684"
       id="path873-9"
       inkscape:connector-curvature="0"
       sodipodi:nodetypes="cc" />
    <path
       style="fill:none;stroke:#000000;stroke-width:0.76499999;stroke-linecap:butt;stroke-linejoin:miter;stroke-miterlimit:4;stroke-dasharray:none;stroke-opacity:1;marker-end:url(#Arrow2Mend-1)"
       d="M 91.652233,155.80178 66.422319,175.55103"
       id="path873-0"
       inkscape:connector-curvature="0"
       sodipodi:nodetypes="cc" />
    <path
       style="fill:none;stroke:#000000;stroke-width:0.76499999;stroke-linecap:butt;stroke-linejoin:miter;stroke-miterlimit:4;stroke-dasharray:none;stroke-opacity:1;marker-end:url(#Arrow2Mend-9)"
       d="m 102.62583,156.07577 17.5071,20.38174"
       id="path873-6"
       inkscape:connector-curvature="0"
       sodipodi:nodetypes="cc" />
    <circle
       style="fill:#999999;fill-opacity:1;stroke:none;stroke-width:2.46499991;stroke-linecap:round;stroke-linejoin:bevel;stroke-miterlimit:4;stroke-dasharray:none;stroke-opacity:1"
       id="path817-5-0"
       cx="126.91663"
       cy="183.49155"
       r="8.7879467" />
    <path
       style="fill:none;stroke:#000000;stroke-width:0.76499999;stroke-linecap:butt;stroke-linejoin:miter;stroke-miterlimit:4;stroke-dasharray:none;stroke-opacity:1;marker-end:url(#Arrow2Mend-6-2)"
       d="m 140.34505,114.82707 7.02038,-20.007352"
       id="path873-9-1"
       inkscape:connector-curvature="0"
       sodipodi:nodetypes="cc" />
    <path
       style="fill:none;stroke:#000000;stroke-width:0.76499999;stroke-linecap:butt;stroke-linejoin:miter;stroke-miterlimit:4;stroke-dasharray:none;stroke-opacity:1;marker-end:url(#Arrow2Mend-6-8)"
       d="m 144.78628,129.19016 14.58097,19.8606 1.88881,2.65437"
       id="path873-9-9"
       inkscape:connector-curvature="0"
       sodipodi:nodetypes="ccc" />
    <path
       style="fill:none;stroke:#000000;stroke-width:0.76499999;stroke-linecap:butt;stroke-linejoin:miter;stroke-miterlimit:4;stroke-dasharray:none;stroke-opacity:1;marker-end:url(#Arrow2Mend-6-20)"
       d="M 50.239181,179.38435 25.037093,176.38593"
       id="path873-9-3"
       inkscape:connector-curvature="0"
       sodipodi:nodetypes="cc" />
    <circle
       style="fill:#999999;fill-opacity:1;stroke:none;stroke-width:2.46499991;stroke-linecap:round;stroke-linejoin:bevel;stroke-miterlimit:4;stroke-dasharray:none;stroke-opacity:1"
       id="path817-3-3-7"
       cx="24.095982"
       cy="212.33333"
       r="8.7879467" />
    <path
       style="fill:none;stroke:#000000;stroke-width:0.76499999;stroke-linecap:butt;stroke-linejoin:miter;stroke-miterlimit:4;stroke-dasharray:none;stroke-opacity:1;marker-end:url(#Arrow2Mend-6-20-5)"
       d="M 52.935608,188.49855 31.607775,206.00533"
       id="path873-9-3-2"
       inkscape:connector-curvature="0"
       sodipodi:nodetypes="cc" />
    <text
       xml:space="preserve"
       style="font-style:normal;font-weight:normal;font-size:6.95395136px;line-height:1.25;font-family:sans-serif;letter-spacing:0px;word-spacing:0px;fill:#000000;fill-opacity:1;stroke:none;stroke-width:0.17384878"
       x="130.62206"
       y="125.19197"
       id="text8348"><tspan
         sodipodi:role="line"
         id="tspan8346"
         x="130.62206"
         y="125.19197"
         style="stroke-width:0.17384878">MPR</tspan></text>
    <text
       xml:space="preserve"
       style="font-style:normal;font-weight:normal;font-size:6.95395184px;line-height:1.25;font-family:sans-serif;letter-spacing:0px;word-spacing:0px;fill:#000000;fill-opacity:1;stroke:none;stroke-width:0.17384878"
       x="51.301796"
       y="185.00795"
       id="text8348-2"><tspan
         sodipodi:role="line"
         id="tspan8346-8"
         x="51.301796"
         y="185.00795"
         style="stroke-width:0.17384878">MPR</tspan></text>
    <path
       style="fill:none;stroke:#000000;stroke-width:0.26458332px;stroke-linecap:butt;stroke-linejoin:miter;stroke-opacity:1"
       d="m 16.570711,109.51042 c 0.04454,-0.22272 0.07387,-0.44904 0.133634,-0.66817 0.267304,-0.98011 0.787699,-2.01771 1.202713,-2.93996 0.527041,-1.17121 0.748744,-1.68455 1.336348,-2.80633 0.722261,-1.37887 0.820201,-1.50064 1.603617,-2.80633 0.267269,-0.445454 0.518699,-0.900797 0.801808,-1.336351 0.864749,-1.330383 1.852761,-2.586619 2.939965,-3.741774 0.345402,-0.366988 0.693839,-0.732655 1.069078,-1.069078 0.917349,-0.82245 1.838565,-1.642944 2.806331,-2.405425 0.504627,-0.397587 1.076238,-0.702207 1.603616,-1.069078 0.497367,-0.345996 0.979988,-0.712719 1.469983,-1.069079 0.579083,-0.356359 1.171501,-0.691911 1.737251,-1.069078 0.504121,-0.336079 0.972617,-0.723085 1.469983,-1.069078 0.713126,-0.496088 2.597756,-1.738018 3.34087,-2.138156 0.0016,-7.93e-4 3.468415,-1.600694 3.474503,-1.603618 0.538779,-0.258614 1.064837,-0.543192 1.603618,-0.801807 1.081424,-0.519086 2.504067,-1.153811 3.608139,-1.603618 1.28732,-0.524465 2.292855,-0.866603 3.608136,-1.336347 1.501151,-0.536125 2.194523,-0.829239 3.741775,-1.202714 0.662384,-0.159885 1.33985,-0.250817 2.00452,-0.400904 0.716613,-0.161814 1.416087,-0.399151 2.138159,-0.534538 6.890612,-1.29199 1.935935,-0.234654 6.280832,-0.935445 0.715886,-0.115464 1.42171,-0.288959 2.138156,-0.400905 0.709655,-0.110881 1.428502,-0.156384 2.138156,-0.267268 6.509129,-1.017051 -2.014087,0.102367 4.142679,-0.534538 0.626616,-0.06482 1.246834,-0.181195 1.870885,-0.267272 0.667766,-0.0921 1.336617,-0.176191 2.004523,-0.267269 0.312092,-0.04256 0.620975,-0.115665 0.935442,-0.133633 2.755951,-0.157485 3.378997,-0.133635 5.746295,-0.133635 0.668174,0 1.336744,-0.02302 2.004521,0 0.624847,0.02154 1.246068,0.11132 1.870887,0.133635 0.623231,0.02225 1.248963,-0.04607 1.870887,0 0.584295,0.04328 1.155528,0.197462 1.737252,0.267269 3.508253,0.292354 -0.231723,-0.07128 3.073601,0.400905 0.886341,0.126619 1.782273,0.17354 2.672693,0.267269 1.803033,0.189793 0.585767,0.06891 2.271792,0.267269 0.228968,0.02694 1.987191,0.213907 2.271791,0.267268 0.36104,0.0677 0.70804,0.199578 1.06908,0.267272 0.35298,0.06618 0.71692,0.0632 1.06908,0.133633 0.31799,0.0636 0.61835,0.199321 0.93544,0.267271 0.30799,0.066 0.62413,0.08574 0.93544,0.133634 0.26781,0.0412 0.53498,0.08655 0.80181,0.133635 0.49045,0.08655 0.9758,0.205497 1.46998,0.267269 0.22101,0.02763 0.44656,-0.02217 0.66818,0 0.22601,0.0226 0.44243,0.108553 0.66817,0.133636 0.17709,0.01968 0.35745,-0.01969 0.53454,0 0.22575,0.02508 0.44645,0.08436 0.66817,0.133633 0.17929,0.03984 0.352,0.113353 0.53454,0.133636 2.23498,0.24833 -1.12798,-0.338722 1.46998,0.133636 0.89337,0.162427 1.78231,0.356459 2.6727,0.534537 0.44545,0.08909 0.89564,0.157094 1.33635,0.267269 5.23054,1.307634 -1.17654,-0.181853 2.40542,0.53454 0.3602,0.07204 0.70735,0.203433 1.06908,0.267269 0.15014,0.0265 2.46331,0.267269 2.53906,0.267269 0.004,0 3.19619,-0.266655 3.20724,-0.267269 0.26685,-0.01482 0.5366,-0.03315 0.80181,0 0.45076,0.05635 0.89089,0.178181 1.33634,0.267269 0.8909,0.178181 1.77881,0.372015 2.6727,0.53454 0.53317,0.09694 1.06972,0.174419 1.60362,0.267269 0.98132,0.170667 1.95997,0.35636 2.93996,0.534541 0.81667,0.148484 1.98521,0.352067 2.80633,0.534537 0.35858,0.07968 0.71152,0.183137 1.06908,0.267269 0.39976,0.09407 0.80701,0.157353 1.20271,0.267272 0.81435,0.226205 1.59277,0.569619 2.40543,0.801806 7.70798,2.202283 -0.80696,-0.335629 3.87541,1.069078 0.44544,0.133636 0.89996,0.240131 1.33634,0.400905 0.41167,0.151667 0.78436,0.402429 1.20272,0.53454 0.43318,0.136795 0.89865,0.145688 1.33634,0.267269 0.001,2.65e-4 2.13086,0.799201 2.13816,0.801809 0.26531,0.09476 0.53886,0.166135 0.80181,0.267269 0.31663,0.121783 0.62363,0.267269 0.93544,0.400905 0.31182,0.133636 0.63202,0.24919 0.93544,0.400904 0.95966,0.479825 1.91248,1.110668 2.6727,1.870888 0.39004,0.39004 1.04248,1.296458 1.33635,1.737251 0.2331,0.349658 0.51586,0.677415 0.66817,1.069078 0.16465,0.423381 0.13368,0.902166 0.26727,1.336347 0.0472,0.153506 0.19036,0.259906 0.26727,0.400905 0.19079,0.349774 0.35636,0.712718 0.53454,1.069078 0.26727,0.44545 0.55146,0.881173 0.80181,1.336347 0.88984,1.61789 0.48267,1.098973 1.33634,2.806329 1.57216,3.144308 0.0776,-0.133091 1.46999,2.806328 0.37562,0.79297 0.69547,1.61151 1.06908,2.40543 0.73618,1.5644 0.60365,0.96711 1.33634,3.0736 0.12068,0.34694 0.17818,0.71272 0.26727,1.06908 0.0891,0.35636 0.17818,0.71271 0.26727,1.06907 0.28849,1.15395 0.54379,2.31341 0.80181,3.47451 0.0891,0.4009 0.16275,0.80555 0.26727,1.20271 0.26576,1.00989 0.48698,1.5596 0.80181,2.53906 0.2716,0.84498 0.55798,1.68566 0.80181,2.53906 0.11282,0.39488 0.15735,0.80701 0.26727,1.20272 0.24917,0.89703 0.6083,1.61988 0.80181,2.53906 1.2e-4,5.3e-4 0.26621,2.39645 0.26727,2.40542 0.0839,0.71335 0.17817,1.42544 0.26726,2.13816 0.0445,0.35636 0.10975,0.71074 0.13364,1.06908 0.0864,1.29641 -0.15895,1.63453 -0.4009,3.20723 -0.11594,0.75362 -0.1665,1.51599 -0.26727,2.27179 -0.0527,0.39534 -0.24475,1.64407 -0.26727,2.00452 -0.0417,0.66688 0.0444,1.33783 0,2.00452 -0.0478,0.71668 -0.22247,1.42129 -0.26727,2.13816 -0.0683,1.09313 0.11531,2.48679 0.26727,3.4745 0.0559,0.36306 0.19523,0.70889 0.26727,1.06908 0.0618,0.30887 0.0857,0.62413 0.13363,0.93544 0.0412,0.26781 0.11113,0.53179 0.13364,0.80181 0.0222,0.26635 -0.0242,0.53564 0,0.80181 0.0411,0.45241 0.22614,0.88394 0.26726,1.33635 0.0242,0.26617 -0.0242,0.53564 0,0.80181 0.0206,0.2262 0.0918,0.44493 0.13364,0.66817 0.0918,0.4895 0.20908,0.97537 0.26727,1.46998 0.0312,0.26544 -0.0222,0.53547 0,0.80181 0.0225,0.27002 0.11285,0.53166 0.13363,0.80181 0.0513,0.66621 -0.0417,1.33765 0,2.00452 0.0448,0.71687 0.2195,1.42149 0.26727,2.13816 0.0208,0.31112 0,0.62363 0,0.93544 0,0.31182 0,0.62363 0,0.93545 0,0.71272 0,1.42543 0,2.13815 0,0.35636 0.0355,0.71449 0,1.06908 -0.01,0.0991 -0.0853,0.1802 -0.13363,0.26727 -0.17441,0.31394 -0.37393,0.61422 -0.53454,0.93544 -0.15171,0.30343 -0.25744,0.62803 -0.4009,0.93545 -0.16849,0.36104 -0.39465,0.69602 -0.53454,1.06908 -0.12898,0.34394 -0.1383,0.72513 -0.26727,1.06907 -0.1399,0.37306 -0.36967,0.70637 -0.53454,1.06908 -0.28076,0.61767 -0.54491,1.24292 -0.80181,1.87089 -0.14411,0.35225 -0.26727,0.71272 -0.4009,1.06908 -0.13364,0.35636 -0.27424,0.71018 -0.40091,1.06907 -0.14065,0.3985 -0.24774,0.80886 -0.4009,1.20272 -0.15901,0.40888 -0.38853,0.789 -0.53454,1.20271 -0.12226,0.34638 -0.13829,0.72514 -0.26727,1.06908 -0.1399,0.37305 -0.39013,0.69774 -0.53454,1.06908 -0.16856,0.43344 -0.26086,0.89287 -0.40091,1.33634 -0.12725,0.40298 -0.24773,0.80886 -0.4009,1.20272 -0.15901,0.40888 -0.35636,0.80181 -0.53454,1.20271 -0.35636,0.80181 -0.69346,1.61246 -1.06908,2.40543 -0.21319,0.45008 -0.4638,0.88218 -0.66817,1.33634 -0.19688,0.43751 -0.32916,0.90277 -0.53454,1.33635 -0.19633,0.41447 -0.48191,0.78362 -0.66817,1.20271 -0.17163,0.38617 -0.24146,0.81136 -0.40091,1.20272 -0.33105,0.81258 -0.71272,1.60361 -1.06908,2.40542 -0.17817,0.40091 -0.33833,0.81031 -0.53454,1.20272 -0.62224,1.24448 -0.65419,1.11213 -1.33634,2.27178 -0.23253,0.39531 -0.42511,0.81381 -0.66818,1.20272 -0.20309,0.32494 -0.45561,0.61661 -0.66817,0.93544 -0.69426,1.04139 -0.58532,1.04867 -1.33635,2.00452 -0.25373,0.32293 -0.54525,0.61476 -0.80181,0.93545 -0.27827,0.34783 -0.50295,0.73876 -0.80181,1.06907 -0.54944,0.60728 -1.15816,1.15817 -1.73725,1.73726 -0.31181,0.31181 -0.64663,0.6022 -0.93544,0.93544 -0.98835,1.1404 -0.56711,0.96802 -1.60362,2.00452 -0.29039,0.2904 -0.64504,0.51141 -0.93544,0.80181 -0.24601,0.24601 -0.43309,0.54535 -0.66817,0.80181 -0.25541,0.27862 -0.55766,0.51326 -0.80181,0.80181 -0.24752,0.29252 -0.4188,0.6445 -0.66818,0.93544 -0.28698,0.33481 -0.63456,0.61307 -0.93544,0.93544 -0.32309,0.34617 -0.62532,0.71125 -0.93544,1.06908 -2.40494,2.77493 0.96172,-1.08002 -1.73725,2.00452 -0.31182,0.35636 -0.61236,0.72291 -0.93545,1.06908 -0.30088,0.32238 -0.62363,0.62363 -0.93544,0.93544 -0.31182,0.31182 -0.6123,0.63539 -0.93544,0.93545 -0.30095,0.27945 -0.6377,0.51895 -0.93545,0.80181 -0.59373,0.56405 -1.14422,1.17246 -1.73725,1.73725 -0.34289,0.32656 -0.71272,0.62363 -1.06908,0.93544 -0.35636,0.31182 -0.70355,0.63443 -1.06908,0.93544 -0.39205,0.32288 -0.79097,0.63808 -1.20271,0.93545 -0.39061,0.2821 -0.83256,0.49335 -1.20271,0.80181 -0.43556,0.36296 -0.76904,0.83751 -1.20272,1.20271 -0.41591,0.35024 -0.89089,0.62363 -1.33634,0.93544 -0.44545,0.31182 -0.86613,0.66242 -1.33635,0.93545 -1.44925,0.8415 -2.85704,1.55581 -4.40995,2.13815 -1.30717,0.49019 -1.85802,0.61164 -3.20723,0.93545 -1.92991,0.46317 -1.52275,0.37902 -3.47451,0.66817 -0.62315,0.0923 -1.24438,0.20132 -1.87088,0.26727 -2.09223,0.22023 -3.05462,0.23657 -4.94449,0.4009 -0.44599,0.0388 -0.89051,0.0931 -1.33635,0.13364 -0.53419,0.0486 -1.07193,0.0627 -1.60361,0.13363 -0.13963,0.0186 -0.27088,0.0795 -0.40091,0.13364 -2.39893,0.99955 -0.11122,0.0556 -2.13815,1.06908 -0.3924,0.1962 -0.80115,0.35785 -1.20272,0.53454 -0.71206,0.3133 -1.42609,0.62213 -2.13815,0.93544 -0.40157,0.17669 -0.78651,0.3958 -1.20272,0.53454 -0.3896,0.12987 -0.80701,0.15735 -1.20271,0.26727 -0.40717,0.1131 -0.801807,0.26727 -1.202712,0.4009 -0.44545,0.0891 -0.897033,0.15166 -1.336347,0.26727 -1.702043,0.44791 -0.661617,0.35853 -2.271792,0.66817 -0.798242,0.15351 -1.601332,0.28179 -2.405425,0.40091 -4.915542,0.72823 3.131281,-0.56187 -2.672696,0.26727 -0.449704,0.0642 -0.88624,0.20589 -1.336347,0.26727 -0.531474,0.0725 -1.074523,0.0454 -1.603616,0.13363 -4.843777,0.8073 1.60958,0.0399 -3.207236,0.66818 -0.487882,0.0636 -0.979988,0.0891 -1.46998,0.13363 -1.915817,0.17417 -0.980411,0.0847 -2.806333,0.26727 -0.445447,0.0445 -0.893627,0.0672 -1.336347,0.13364 -0.449244,0.0674 -0.884123,0.2242 -1.336346,0.26726 -0.487789,0.0465 -0.979988,0 -1.469983,0 -0.44545,0 -0.8909,0 -1.336347,0 -0.489995,0 -0.980414,0.0204 -1.469983,0 -1.520036,-0.0633 -3.026899,-0.2963 -4.543583,-0.4009 -4.155581,-0.28659 -0.986248,0.0254 -3.474503,-0.26727 -0.400609,-0.0471 -0.807993,-0.0505 -1.202714,-0.13363 -0.455086,-0.0958 -0.887672,-0.27854 -1.336347,-0.40091 -0.531574,-0.14497 -1.069078,-0.26727 -1.603616,-0.4009 -0.53454,-0.17818 -1.061032,-0.38262 -1.603618,-0.53454 -0.572291,-0.16024 -1.169228,-0.22613 -1.737252,-0.40091 -0.593002,-0.18246 -1.153488,-0.45801 -1.737251,-0.66817 -4.567119,-1.64416 1.537369,0.67353 -3.34087,-1.20271 -4.803801,-1.84762 1.193152,0.47726 -3.34087,-1.33635 -0.68503,-0.27401 -2.651083,-0.99145 -3.340867,-1.33635 -1.209419,-0.60471 -1.855685,-1.11189 -2.939966,-1.87088 -0.445449,-0.31182 -0.918636,-0.58735 -1.336346,-0.93545 -0.38716,-0.32263 -0.694481,-0.73194 -1.069078,-1.06907 -0.173453,-0.15611 -0.646536,-0.2195 -0.80181,-0.26727 -0.403902,-0.12428 -0.801809,-0.26728 -1.202713,-0.40091 -0.400905,-0.13363 -0.816544,-0.22927 -1.202712,-0.4009 -0.419092,-0.18627 -0.801809,-0.44545 -1.202713,-0.66818 -0.44545,-0.17818 -0.894181,-0.34836 -1.336347,-0.53454 -1.589501,-0.66926 -0.82803,-0.33645 -2.271792,-1.20271 -0.615908,-0.36954 -1.259171,-0.69264 -1.870887,-1.06908 -0.547135,-0.3367 -1.061617,-0.72417 -1.603616,-1.06908 -0.219133,-0.13944 -0.455388,-0.25195 -0.668174,-0.4009 -0.576627,-0.40364 -0.721201,-0.58756 -1.202713,-1.06908 -0.178181,-0.17818 -0.335635,-0.37983 -0.534541,-0.53454 -0.205025,-0.15946 -0.463147,-0.24144 -0.668172,-0.4009 -0.198905,-0.1547 -0.344902,-0.36861 -0.534539,-0.53454 -0.167618,-0.14667 -0.365434,-0.25596 -0.534539,-0.4009 -0.143491,-0.123 -0.257414,-0.27792 -0.400905,-0.40091 -0.169105,-0.14494 -0.384718,-0.2361 -0.534539,-0.4009 -0.299641,-0.32961 -0.548254,-0.70284 -0.801809,-1.06908 -0.526489,-0.76048 -0.302438,-0.53173 -0.668173,-1.33635 -0.123651,-0.27203 -0.285975,-0.52598 -0.400905,-0.80181 -0.108356,-0.26005 -0.15069,-0.54533 -0.267269,-0.80181 -0.107481,-0.23645 -0.293423,-0.43171 -0.400904,-0.66817 -0.11658,-0.25647 -0.170992,-0.53704 -0.26727,-0.80181 -0.08198,-0.22544 -0.185291,-0.44273 -0.267269,-0.66817 -0.09628,-0.26477 -0.170992,-0.53705 -0.26727,-0.80181 -0.08198,-0.22544 -0.204152,-0.43674 -0.267269,-0.66817 -0.07129,-0.26141 -0.06234,-0.5404 -0.133635,-0.80181 -0.06312,-0.23143 -0.20909,-0.43546 -0.26727,-0.66818 -0.07639,-0.30557 -0.06764,-0.62745 -0.133634,-0.93544 -0.06795,-0.31709 -0.188618,-0.62083 -0.26727,-0.93544 -0.05509,-0.22036 -0.08909,-0.44545 -0.133635,-0.66818 -0.126642,-0.63321 -0.242633,-1.2378 -0.400904,-1.87088 -0.03416,-0.13666 -0.08909,-0.26727 -0.133635,-0.40091 -0.04454,-0.17818 -0.09379,-0.35525 -0.133635,-0.53454 -0.203797,-0.91709 -0.04331,-0.4866 -0.400904,-1.46998 -0.212551,-0.58452 -0.378559,-0.84606 -0.534539,-1.46998 -0.06572,-0.26287 -0.08516,-0.53523 -0.133635,-0.80181 -0.04063,-0.22347 -0.09416,-0.44449 -0.133634,-0.66817 -0.09418,-0.53367 -0.173093,-1.06995 -0.26727,-1.60362 -0.03947,-0.22368 -0.114772,-0.44182 -0.133635,-0.66818 -0.02589,-0.31073 0.04121,-0.62636 0,-0.93544 -0.0011,-0.008 -0.531622,-2.1226 -0.534539,-2.13816 -0.06618,-0.35298 -0.06745,-0.71609 -0.133634,-1.06907 -0.0677,-0.36104 -0.221709,-0.70459 -0.26727,-1.06908 -0.0442,-0.35361 0.02223,-0.71341 0,-1.06908 -0.0224,-0.35843 -0.108048,-0.71086 -0.133635,-1.06908 -0.01904,-0.26659 0.0222,-0.53546 0,-0.8018 -0.07765,-0.93182 -0.08909,-0.54941 -0.267269,-1.20272 -0.09665,-0.35438 -0.183138,-0.71151 -0.26727,-1.06908 -0.631904,-2.68559 0.03441,0.19497 -0.400904,-2.27179 -0.07137,-0.40443 -0.17818,-0.80181 -0.26727,-1.20271 -0.08909,-0.4009 -0.157352,-0.80701 -0.267269,-1.20271 -0.113104,-0.40718 -0.279474,-0.79795 -0.400904,-1.20272 -0.112237,-0.37412 -0.748166,-2.7428 -0.801809,-3.0736 -0.179538,-1.10714 -0.254585,-2.22884 -0.400904,-3.34087 -0.07643,-0.58089 -0.17818,-1.15816 -0.26727,-1.73725 -0.08909,-0.57908 -0.170948,-1.15932 -0.267269,-1.73725 -0.08188,-0.49125 -0.196838,-0.97696 -0.26727,-1.46998 -0.06331,-0.44317 -0.06381,-0.89416 -0.133635,-1.33635 -0.257776,-1.63259 -0.247426,-0.74052 -0.534539,-2.27179 -0.06618,-0.35298 -0.081,-0.71382 -0.133635,-1.06908 -0.125568,-0.84759 -0.315645,-1.68647 -0.400904,-2.53906 -0.04876,-0.48756 0.02331,-0.98054 0,-1.46998 -0.02129,-0.44717 -0.111279,-0.88924 -0.133635,-1.33635 -0.02224,-0.44489 0,-0.8909 0,-1.33635 -0.04454,-0.44544 -0.110105,-0.88929 -0.133634,-1.33634 -0.02107,-0.40035 0.02354,-0.8025 0,-1.20272 -0.02109,-0.35851 -0.111233,-0.71064 -0.133635,-1.06907 -0.02223,-0.35567 0.02223,-0.71342 0,-1.06908 -0.106657,-1.70651 -0.235628,-0.46756 -0.133635,-2.40543 0.0212,-0.40281 0.103837,-0.80044 0.133635,-1.20271 0.179627,-2.42496 0.02237,-1.76021 0.267269,-3.47451 0.03832,-0.26823 0.08516,-0.53522 0.133635,-0.8018 0.04063,-0.22348 0.111034,-0.44217 0.133635,-0.66818 0.02216,-0.22162 0,-0.44545 0,-0.66817 0,-0.57909 -0.02226,-1.1586 0,-1.73725 0.02232,-0.58037 0.09225,-1.15794 0.133635,-1.73726 0.09542,-1.33591 0.202014,-2.67131 0.267269,-4.00904 0.05647,-1.15765 0.06934,-2.31726 0.133635,-3.4745 0.02606,-0.85199 0.217295,-1.6895 0.26727,-2.53906 0.02093,-0.35575 -0.0237,-0.71351 0,-1.06908 0.02095,-0.31428 0.111193,-0.62126 0.133634,-0.93544 0.02222,-0.31103 -0.02222,-0.62442 0,-0.93545 0.02244,-0.31418 0.08909,-0.62363 0.133635,-0.93544 0.08909,-0.62363 0.17818,-1.24726 0.26727,-1.87089 0.04454,-0.31181 0.102293,-0.62202 0.133634,-0.93544 0.05779,-0.57791 0.0695,-1.16001 0.133635,-1.73725 0.02508,-0.22575 0.08909,-0.44545 0.133635,-0.66818 0.04454,-0.22272 0.08436,-0.44644 0.133635,-0.66817 0.03984,-0.17929 0.110854,-0.35229 0.133634,-0.53454 0.03868,-0.3094 -0.05126,-0.62787 0,-0.93544 0.02316,-0.13895 0.08909,-0.26727 0.133635,-0.40091 0.04454,-0.13363 0.08909,-0.26727 0.133635,-0.4009 0.162575,-0.48773 0.161215,-0.5098 0.400904,-1.06908 0.03924,-0.0915 0.109477,-0.17064 0.133635,-0.26727 0.02161,-0.0864 -0.02161,-0.18084 0,-0.26727 0.02416,-0.0966 0.102137,-0.17277 0.133635,-0.26727 0.01409,-0.0423 -0.01755,-0.0927 0,-0.13363 0.133635,-0.26727 0.267269,-0.53454 0.400904,-0.80181 0.04455,-0.0445 0.09869,-0.0812 0.133635,-0.13364 0.05525,-0.0829 0.07838,-0.18439 0.133635,-0.26726 0.133994,-0.201 0.42646,-0.18475 0.534539,-0.40091 0.01992,-0.0398 -0.01992,-0.0938 0,-0.13363 0.02817,-0.0563 0.08909,-0.0891 0.133635,-0.13364 0.04454,-0.0445 0.07729,-0.10546 0.133634,-0.13363 0.03984,-0.0199 0.09138,0.0141 0.133635,0 0.09766,-0.0326 0.339745,-0.14496 0.400904,-0.26727 0.01992,-0.0399 -0.01992,-0.0938 0,-0.13364 0.05635,-0.11269 0.236712,-0.14504 0.26727,-0.26727 0.02949,-0.11798 0,-0.61685 0,-0.80181 0,-0.0445 -0.0108,-0.0904 0,-0.13363 0.03416,-0.13666 0.08909,-0.26727 0.133635,-0.40091 z"
       id="path9212"
       inkscape:connector-curvature="0" />
    <path
       style="fill:none;stroke:#000000;stroke-width:0.26458332px;stroke-linecap:butt;stroke-linejoin:miter;stroke-opacity:1"
       d="m 71.227327,194.23486 c -1.056714,-0.79253 -1.020159,-0.81233 -2.138156,-1.46998 -0.395298,-0.23253 -0.813805,-0.4251 -1.202711,-0.66817 -0.324945,-0.20309 -0.62039,-0.45006 -0.935445,-0.66818 -0.264102,-0.18284 -0.564126,-0.31846 -0.801806,-0.53454 -0.257432,-0.23402 -0.44032,-0.53889 -0.668177,-0.8018 -0.351297,-0.40535 -0.747241,-0.7736 -1.069078,-1.20272 -0.613537,-0.81805 -1.339789,-2.21922 -1.870884,-3.07359 -0.698019,-1.1229 -1.426316,-2.22669 -2.138156,-3.34087 -0.311817,-0.49 -0.623631,-0.97999 -0.935445,-1.46999 -0.222724,-0.4009 -0.425106,-0.8138 -0.668174,-1.20271 -0.203091,-0.32494 -0.471024,-0.60686 -0.668173,-0.93544 -0.0011,-0.002 -1.065871,-2.1321 -1.069078,-2.13816 -0.214583,-0.40532 -0.463074,-0.79251 -0.668174,-1.20271 -0.196201,-0.3924 -0.347736,-0.80576 -0.53454,-1.20271 -0.169645,-0.3605 -0.382839,-0.70067 -0.534538,-1.06908 -0.160901,-0.39076 -0.222197,-0.81977 -0.400904,-1.20272 -0.13584,-0.29108 -0.390888,-0.5145 -0.534541,-0.80181 -0.125992,-0.25198 -0.150688,-0.54533 -0.267268,-0.8018 -0.107482,-0.23646 -0.293423,-0.43172 -0.400905,-0.66818 -0.116578,-0.25647 -0.186314,-0.53196 -0.267269,-0.8018 -0.18637,-0.62124 -0.345697,-1.25041 -0.53454,-1.87089 -0.123042,-0.40428 -0.318027,-0.78833 -0.400902,-1.20272 -0.09649,-0.48246 -0.06406,-0.98291 -0.133636,-1.46998 -0.06424,-0.4497 -0.199882,-0.8871 -0.267269,-1.33635 -0.06641,-0.44271 -0.06004,-0.89476 -0.133636,-1.33634 -0.05643,-0.33858 -0.421933,-1.63856 -0.534537,-2.00453 -0.08286,-0.26926 -0.193143,-0.53 -0.267272,-0.8018 -0.363233,-1.33186 0.01908,-0.0575 -0.133633,-1.20272 -0.687713,-3.78241 -0.0673,0.12791 -0.267271,-2.27179 -0.01934,-0.23209 -0.207606,-1.2015 -0.267269,-1.46998 -0.03984,-0.17929 -0.110855,-0.35229 -0.133636,-0.53454 -0.02209,-0.1768 0,-0.35636 0,-0.53454 0,-0.13363 -0.02196,-0.26908 0,-0.4009 0.06752,-0.4051 0.191587,-0.79907 0.267272,-1.20271 0.05805,-0.30959 0.06763,-0.62746 0.133633,-0.93545 0.380042,-1.77353 0.133987,-0.13504 0.53454,-1.73725 2.06e-4,-7.9e-4 0.266449,-1.59911 0.267269,-1.60362 0.04063,-0.22347 0.08436,-0.44644 0.133636,-0.66817 0.03984,-0.17929 0.113352,-0.352 0.133633,-0.53454 0.02461,-0.22136 -0.02217,-0.44655 0,-0.66817 0.02259,-0.22601 0.093,-0.4447 0.133635,-0.66818 0.04847,-0.26658 0.09244,-0.534 0.133636,-0.80181 0.04789,-0.31131 0.06281,-0.62852 0.133633,-0.93544 0.06335,-0.27451 0.198941,-0.52849 0.267272,-0.80181 0.131432,-0.52573 0.124682,-1.0808 0.267269,-1.60362 0.06312,-0.23142 0.204152,-0.43674 0.267268,-0.66817 0.142587,-0.52282 0.1079,-1.08567 0.267269,-1.60362 0.09977,-0.32424 0.28179,-0.61779 0.400905,-0.93544 0.148381,-0.39568 0.267269,-0.80181 0.400905,-1.20271 0.304366,-0.9131 0.483293,-1.34739 0.668173,-2.27179 0.123547,-0.61773 0.171479,-1.24825 0.267269,-1.87089 0.0412,-0.26781 0.106675,-0.5322 0.133636,-0.80181 0.03546,-0.35459 -0.0504,-0.7163 0,-1.06908 0.01992,-0.13944 0.09494,-0.26546 0.133635,-0.4009 0.05046,-0.1766 0.07555,-0.3603 0.133633,-0.53454 0.07586,-0.22757 0.159991,-0.45362 0.267272,-0.66817 0.07183,-0.14366 0.178178,-0.26727 0.267269,-0.40091 0.485066,-0.7276 0.06113,-0.11677 0.801809,-1.06908 0.352081,-0.45267 0.381056,-0.5748 0.801807,-0.93544 0.169105,-0.14495 0.365434,-0.25596 0.53454,-0.4009 0.143489,-0.12299 0.247118,-0.29106 0.400904,-0.40091 0.162105,-0.11579 0.365607,-0.16169 0.534538,-0.26727 1.831547,-1.14471 -0.595206,0.29152 0.935445,-0.80181 0.162105,-0.11579 0.372433,-0.15148 0.534538,-0.26726 0.153786,-0.10985 0.257413,-0.27792 0.400904,-0.40091 0.169106,-0.14495 0.35636,-0.26727 0.534541,-0.4009 0.356359,-0.26727 0.698442,-0.55472 1.069078,-0.80181 0.216114,-0.14408 0.445447,-0.26727 0.668173,-0.40091 0.222724,-0.13363 0.435856,-0.28474 0.668174,-0.4009 0.214556,-0.10728 0.450371,-0.16675 0.668173,-0.26727 0.361752,-0.16696 0.712719,-0.35636 1.069078,-0.53454 0.178181,-0.0891 0.348012,-0.19732 0.534541,-0.26727 0.171968,-0.0645 0.357941,-0.0832 0.534537,-0.13363 0.935443,-0.26727 -0.267269,0 1.202714,-0.40091 0.219131,-0.0598 0.457282,-0.0493 0.668174,-0.13363 0.04136,-0.0165 -0.0315,-0.10214 0,-0.13364 0.0315,-0.0315 0.102137,0.0315 0.133633,0 0.0315,-0.0315 -0.0315,-0.10213 0,-0.13363 0.0315,-0.0315 0.08909,0 0.133635,0 0.04455,0 0.08909,0 0.133636,0 0.267269,0 0.534538,0 0.801807,0 0.133635,0 0.269089,0.022 0.400904,0 0.138949,-0.0232 0.262777,-0.10601 0.400905,-0.13364 0.08736,-0.0175 0.178181,0 0.267269,0 0.178181,0 0.356359,0 0.53454,0 0.08909,0 0.18275,0.0282 0.267269,0 1.146651,-0.38222 -0.851786,0.11969 0.668173,-0.13363 0.277895,-0.0463 0.530924,-0.18988 0.80181,-0.26727 0.176596,-0.0505 0.365725,-0.0613 0.53454,-0.13364 0.147622,-0.0633 0.25328,-0.204 0.400905,-0.26727 0.168812,-0.0723 0.360299,-0.0755 0.534537,-0.13363 0.227571,-0.0759 0.437523,-0.20137 0.668174,-0.26727 0.08566,-0.0245 0.18084,0.0216 0.267269,0 0.09663,-0.0242 0.17064,-0.10948 0.267271,-0.13363 0.08643,-0.0216 0.18084,0.0216 0.267269,0 0.09663,-0.0242 0.169598,-0.11411 0.267269,-0.13364 0.13104,-0.0262 0.267269,0 0.400904,0 0.35636,0 0.712719,0 1.069078,0 0.222724,0 0.446366,0.0202 0.668174,0 0.269843,-0.0245 0.531789,-0.11113 0.801809,-0.13363 0.266345,-0.0222 0.535636,0.0242 0.801809,0 0.226203,-0.0206 0.44545,-0.0891 0.668174,-0.13364 0.222723,-0.0445 0.446447,-0.0844 0.668173,-0.13364 0.17929,-0.0398 0.352293,-0.11085 0.53454,-0.13363 0.397807,-0.0497 0.803797,0.0399 1.202712,0 0.226009,-0.0226 0.442166,-0.11103 0.668173,-0.13363 0.22162,-0.0222 0.44545,0 0.668174,0 0.267271,0 0.53454,0 0.801809,0 0.979987,0 1.959977,0 2.939965,0 0.222724,0 0.44545,0 0.668173,0 0.222727,0 0.446556,0.0222 0.668174,0 0.22601,-0.0226 0.442793,-0.10547 0.668173,-0.13364 0.682128,-0.295 1.435024,-0.0697 2.138156,-0.13363 0.269846,-0.0245 0.531789,-0.11114 0.80181,-0.13364 0.266348,-0.0222 0.53454,0 0.801809,0 0.311814,0 0.623628,0 0.935442,0 0.534541,0 1.069078,0 1.603619,0 0.311814,0 0.624546,-0.0239 0.935442,0 0.270158,0.0208 0.531542,0.11433 0.801809,0.13364 2.63331,0 -0.38789,-0.0504 2.00452,0.13363 0.53297,0.041 1.07093,-0.0444 1.60362,0 0.27002,0.0225 0.53165,0.11286 0.80181,0.13364 0.31089,0.0239 0.62442,-0.0222 0.93544,0 0.31418,0.0224 0.62126,0.11119 0.93545,0.13363 0.31102,0.0222 0.62431,-0.0207 0.93544,0 0.35833,0.0239 0.71056,0.11255 1.06908,0.13363 0.40021,0.0236 0.80242,-0.0222 1.20271,0 0.40275,0.0224 0.79996,0.11126 1.20271,0.13364 0.40029,0.0222 0.80181,0 1.20271,0 0.71272,0 1.42544,0 2.13816,0 0.26727,0 0.53454,0 0.80181,0 0.31181,0 0.62491,0.0282 0.93544,0 0.18291,-0.0166 0.35128,-0.12142 0.53454,-0.13364 0.48891,-0.0326 0.97999,0 1.46998,0 0.53454,0 1.06908,0 1.60362,0 0.57908,0 1.15857,-0.0214 1.73725,0 2.31952,0.0859 1.38018,0.12241 3.60814,0.40091 0.48822,0.061 0.98291,0.0641 1.46998,0.13364 2.1829,0.31184 0.50337,0.15924 2.53906,0.66817 0.30558,0.0764 0.63259,0.0471 0.93545,0.13363 0.32619,0.0932 0.61881,0.27913 0.93544,0.40091 0.54054,0.2079 0.95647,0.27778 1.46998,0.53454 0.23232,0.11616 0.44545,0.26727 0.66818,0.4009 0.53454,0.22272 1.07965,0.4216 1.60361,0.66817 0.23502,0.1106 0.43172,0.29343 0.66818,0.40091 0.25647,0.11658 0.54533,0.15069 0.80181,0.26727 0.23645,0.10748 0.44112,0.27476 0.66817,0.4009 0.34828,0.19349 0.73757,0.31354 1.06908,0.53454 0.10483,0.0699 0.15923,0.20245 0.26727,0.26727 0.12079,0.0725 0.27011,0.0813 0.4009,0.13364 0.0925,0.037 0.17818,0.0891 0.26727,0.13363 0.0891,0.0446 0.19684,0.0632 0.26727,0.13364 0.11357,0.11356 0.17091,0.27241 0.26727,0.4009 0.11339,0.15119 0.28285,0.25333 0.4009,0.40091 0.10034,0.12541 0.18759,0.26145 0.26727,0.4009 0.19768,0.34593 0.32338,0.73122 0.53454,1.06908 0.55956,0.89528 0.28305,0.16518 0.80181,1.20271 0.10728,0.21456 0.17818,0.44545 0.26727,0.66817 0.0891,0.22273 0.17818,0.44545 0.26727,0.66818 0.0891,0.22272 0.19834,0.43841 0.26727,0.66817 0.0653,0.21756 0.0891,0.44545 0.13364,0.66818 0.13363,0.48999 0.24941,0.98521 0.4009,1.46998 0.25788,0.82522 0.32532,0.56336 0.53454,1.46998 0.0708,0.30691 0.0857,0.62413 0.13363,0.93544 0.0412,0.26781 0.0891,0.53454 0.13364,0.80181 0.14814,0.88884 0.25282,1.78419 0.4009,2.6727 0.12087,0.72521 0.20488,0.79253 0.26727,1.60361 0.0205,0.26649 -0.0205,0.53533 0,0.80181 0.0242,0.31405 0.1112,0.62127 0.13364,0.93545 0.0222,0.31102 -0.0222,0.62442 0,0.93544 0.0449,0.62836 0.22238,1.24253 0.26727,1.87089 0.0222,0.31102 -0.0222,0.62442 0,0.93544 0.0224,0.31418 0.11119,0.62126 0.13363,0.93544 0.0222,0.31102 -0.0239,0.62455 0,0.93545 0.0208,0.27015 0.11286,0.53165 0.13364,0.8018 0.0239,0.3109 -0.0239,0.62455 0,0.93545 0.0208,0.27016 0.11113,0.53179 0.13363,0.80181 0.0222,0.26634 -0.0222,0.53546 0,0.80181 0.33294,1.99763 -0.0196,-0.38866 0.13364,1.60361 0.0449,0.58417 0.22233,1.15308 0.26726,1.73726 0.0239,0.31089 0,0.62362 0,0.93544 0,0.62363 0,1.24725 0,1.87088 0,0.84636 0,1.69271 0,2.53907 0,0.26726 0.0242,0.53563 0,0.8018 -0.0206,0.2262 -0.11307,0.44198 -0.13363,0.66818 -0.0242,0.26617 0.0242,0.53563 0,0.8018 -0.0206,0.22621 -0.11307,0.44198 -0.13363,0.66818 -0.0242,0.26617 0.0222,0.53546 0,0.80181 -0.0225,0.27002 -0.11286,0.53165 -0.13364,0.80181 -0.0478,0.62179 0.0478,1.24909 0,1.87088 -0.0437,0.56863 -0.22353,1.16863 -0.26727,1.73726 -0.0205,0.26648 0,0.53453 0,0.8018 -0.0445,0.26727 -0.1091,0.53197 -0.13363,0.80181 -0.0202,0.22181 0.0222,0.44656 0,0.66818 -0.0226,0.226 -0.11104,0.44216 -0.13364,0.66817 -0.17273,1.7273 0.30615,-0.68153 -0.13363,1.73725 -0.0252,0.13859 -0.11048,0.26196 -0.13364,0.40091 -0.022,0.13181 0.022,0.26908 0,0.4009 -0.0232,0.13895 -0.0891,0.26727 -0.13363,0.4009 -0.0445,0.13364 -0.0813,0.27012 -0.13364,0.40091 -0.037,0.0925 -0.0966,0.17479 -0.13363,0.26727 -0.10463,0.26157 -0.17818,0.53454 -0.26727,0.80181 -0.0446,0.13363 -0.10844,0.26231 -0.13364,0.4009 -0.0642,0.35334 -0.0694,0.71574 -0.13363,1.06908 -0.0252,0.13859 -0.11371,0.26146 -0.13364,0.4009 -0.0252,0.17639 0.0252,0.35815 0,0.53454 -0.0199,0.13945 -0.0891,0.26727 -0.13363,0.40091 -0.0891,0.26727 -0.16264,0.54023 -0.26727,0.8018 -0.18433,0.46083 -0.11953,0.0772 -0.26727,0.66818 -0.0108,0.0432 0.0141,0.0914 0,0.13363 -0.0315,0.0945 -0.10948,0.17064 -0.13363,0.26727 -0.0216,0.0864 0.0282,0.18276 0,0.26727 -0.0199,0.0598 -0.10547,0.0773 -0.13364,0.13364 -0.0199,0.0398 0.0315,0.10213 0,0.13363 -0.0315,0.0315 -0.10213,-0.0315 -0.13363,0 -0.0315,0.0315 0.0239,0.0961 0,0.13364 -0.42527,0.66827 -0.8705,1.24974 -1.33635,1.87088 -0.13364,0.17818 -0.25424,0.36692 -0.4009,0.53454 -0.33187,0.37928 -0.71272,0.71272 -1.06908,1.06908 -0.17818,0.17818 -0.37713,0.33777 -0.53454,0.53454 -0.20067,0.25083 -0.34561,0.54203 -0.53454,0.80181 -0.16777,0.23067 -0.3803,0.42825 -0.53454,0.66817 -0.248,0.38578 -0.41378,0.82112 -0.66817,1.20272 -0.10484,0.15724 -0.27992,0.25572 -0.40091,0.4009 -0.10282,0.12338 -0.16694,0.27549 -0.26727,0.40091 -0.0787,0.0984 -0.19167,0.16647 -0.26727,0.26726 -0.0598,0.0797 -0.0632,0.19684 -0.13363,0.26727 -0.0315,0.0315 -0.098,-0.0267 -0.13364,0 -0.15119,0.1134 -0.26727,0.26727 -0.4009,0.40091 -0.17818,0.17818 -0.32488,0.39476 -0.53454,0.53454 -0.19959,0.13306 -0.45362,0.15999 -0.66817,0.26727 -1.65695,0.82847 1.61705,-0.5403 -1.20272,0.66817 -0.34982,0.14992 -0.7157,0.25956 -1.06908,0.4009 -0.31498,0.126 -0.62046,0.27492 -0.93544,0.40091 -0.35337,0.14135 -0.71571,0.25956 -1.06908,0.4009 -1.50501,0.60201 -2.9846,1.27873 -4.54358,1.73726 -0.3524,0.10364 -0.71272,0.17817 -1.06908,0.26726 -0.35636,0.0891 -0.70246,0.24436 -1.06908,0.26727 -0.35843,0.0224 -0.71118,-0.16346 -1.06907,-0.13363 -0.19853,0.0165 -0.35066,0.19065 -0.53454,0.26727 -0.35132,0.14638 -0.70928,0.27683 -1.06908,0.4009 -0.93545,0.31182 -1.87089,0.62363 -2.80633,0.93545 -0.48999,0.22272 -0.96162,0.49135 -1.46998,0.66817 -0.008,0.003 -3.19241,0.79729 -3.20724,0.80181 -0.49879,0.15181 -0.96697,0.39735 -1.46998,0.53454 -0.48048,0.13104 -0.98434,0.15689 -1.46998,0.26727 -5.247,1.1925 2.06416,-0.35784 -2.80633,0.80181 -2.04103,0.48595 -0.85704,0.0931 -2.80633,0.4009 -0.40566,0.0641 -0.79828,0.1959 -1.20271,0.26727 -0.20587,0.0363 -2.131247,0.25946 -2.271796,0.26727 -0.800574,0.0445 -1.604852,-0.0445 -2.405425,0 -0.402752,0.0224 -0.7996,0.11924 -1.202714,0.13363 -0.845815,0.0302 -1.692706,0 -2.539061,0 -1.737251,0 -3.474503,0 -5.211754,0 -1.781797,0 -3.563594,0 -5.345391,0 -0.579085,0 -1.158168,0 -1.737251,0 -0.178181,0 -0.35636,0 -0.534541,0 -0.222723,0 -0.446809,0.0246 -0.668173,0 -0.182541,-0.0203 -0.351999,-0.11335 -0.53454,-0.13363 -0.221361,-0.0246 -0.446553,0.0222 -0.668174,0 -0.226007,-0.0226 -0.445447,-0.0891 -0.668173,-0.13364 -0.222724,-0.0445 -0.44545,-0.0891 -0.668174,-0.13363 -0.222723,-0.0445 -0.446447,-0.0844 -0.668173,-0.13364 -0.17929,-0.0398 -0.352295,-0.11085 -0.53454,-0.13363 -1.778934,0 0.264787,0.0797 -0.801807,-0.13363 -0.13104,-0.0262 -0.267272,0 -0.400905,0 -0.08909,0 -0.182753,0.0282 -0.267268,0 -0.05976,-0.0199 -0.07387,-0.11372 -0.133636,-0.13364 -0.08452,-0.0282 -0.182753,0.0282 -0.267269,0 -0.05976,-0.0199 -0.08237,-0.097 -0.133636,-0.13363 -0.261384,-0.18671 -0.540422,-0.34784 -0.801809,-0.53454 -0.05126,-0.0366 -0.08909,-0.0891 -0.133633,-0.13364 -0.08909,-0.0891 -0.178181,-0.17818 -0.267272,-0.26727 -0.04454,-0.0445 -0.10546,-0.0773 -0.133633,-0.13363 -0.01992,-0.0398 0.01992,-0.0938 0,-0.13364 -0.02817,-0.0563 -0.105463,-0.0773 -0.133635,-0.13363 -0.01992,-0.0398 0.0315,-0.10214 0,-0.13364 -0.0315,-0.0315 -0.09657,0.0247 -0.133636,0 -1.243431,-0.82895 -0.04667,-0.32737 -1.46998,-0.80181"
       id="path9472"
       inkscape:connector-curvature="0" />
    <text
       xml:space="preserve"
       style="font-style:normal;font-weight:normal;font-size:6.71695948px;line-height:1.25;font-family:sans-serif;letter-spacing:0px;word-spacing:0px;fill:#000000;fill-opacity:1;stroke:none;stroke-width:0.16792399"
       x="82.300537"
       y="114.59096"
       id="text9476"><tspan
         sodipodi:role="line"
         id="tspan9474"
         x="82.300537"
         y="114.59096"
         style="stroke-width:0.16792399">voisinage</tspan></text>
    <text
       xml:space="preserve"
       style="font-style:normal;font-weight:normal;font-size:5.9863615px;line-height:1.25;font-family:sans-serif;letter-spacing:0px;word-spacing:0px;fill:#000000;fill-opacity:1;stroke:none;stroke-width:0.14965902"
       x="47.456936"
       y="73.360489"
       id="text9480"><tspan
         sodipodi:role="line"
         id="tspan9478"
         x="47.456936"
         y="73.360489"
         style="stroke-width:0.14965902">noeuds à deux sauts</tspan></text>
  </g>
</svg>
